<svg width="16" height="18" viewBox="0 0 16 18" fill="none" xmlns="http://www.w3.org/2000/svg">
<path d="M8.68005 16.1731C12.0426 14.4585 14.6668 11.619 14.6668 8.16667C14.6668 4.48477 11.6821 1.5 8.00016 1.5C4.31826 1.5 1.3335 4.48477 1.3335 8.16667C1.3335 11.619 3.95773 14.4585 7.32028 16.1731C7.74749 16.3909 8.25284 16.3909 8.68005 16.1731Z" stroke="white" stroke-width="1.5" stroke-linecap="round" stroke-linejoin="round"/>
<path d="M10.5002 8.16667C10.5002 9.54738 9.38087 10.6667 8.00016 10.6667C6.61945 10.6667 5.50016 9.54738 5.50016 8.16667C5.50016 6.78595 6.61945 5.66667 8.00016 5.66667C9.38087 5.66667 10.5002 6.78595 10.5002 8.16667Z" stroke="white" stroke-width="1.5" stroke-linecap="round" stroke-linejoin="round"/>
</svg>
