<svg width="102" height="32" viewBox="0 0 102 32" fill="none" xmlns="http://www.w3.org/2000/svg">
<path fill-rule="evenodd" clip-rule="evenodd" d="M94.4539 26.251C94.3979 23.591 94.3699 21.533 94.3699 20.077V10.585C94.3699 5.43299 94.3979 2.64699 94.4539 2.22699C94.5099 1.72299 94.5379 1.41499 94.5379 1.30299C94.5379 0.938994 94.4539 0.686994 94.2859 0.546994C94.118 0.378993 93.838 0.308993 93.446 0.336994C92.914 0.420993 92.158 0.504993 91.1779 0.588993C90.2259 0.644993 89.442 0.672992 88.826 0.672992C88.126 0.672992 87.5939 0.728992 87.2299 0.840993C86.866 0.952993 86.6839 1.27499 86.6839 1.80699C86.6559 2.22699 86.642 3.30499 86.642 5.04099V7.35099L86.0119 6.38499C85.5359 5.68499 85.1299 5.02699 84.7939 4.41099L84.3739 3.65499C83.8699 2.73099 83.394 2.01699 82.946 1.51299C82.526 1.00899 81.9939 0.756994 81.3499 0.756994C80.8459 0.756994 80.44 0.742994 80.132 0.714994C79.824 0.686993 79.586 0.672992 79.418 0.672992C79.11 0.672992 78.8019 0.700993 78.4939 0.756994C77.71 0.952993 77.1079 1.05099 76.688 1.05099C76.268 1.02299 75.9879 1.00899 75.8479 1.00899C75.5679 1.00899 75.3439 1.10699 75.1759 1.30299C75.0079 1.47099 74.924 1.80699 74.924 2.31099C74.924 2.45099 74.952 2.77299 75.0079 3.27699C75.0919 3.86499 75.1339 4.80299 75.1339 6.09099C75.1339 7.04299 75.1059 8.80699 75.0499 11.383C74.966 13.427 74.924 15.443 74.924 17.431C74.952 19.391 75.0219 21.701 75.1339 24.361C75.2179 26.909 75.2599 28.687 75.2599 29.695C75.2319 30.367 75.274 30.801 75.386 30.997C75.526 31.193 75.806 31.263 76.226 31.207C76.7579 31.151 77.318 31.095 77.906 31.039C78.5219 30.983 79.054 30.955 79.502 30.955C79.81 30.983 80.02 30.969 80.132 30.913C80.244 30.829 80.3 30.647 80.3 30.367C80.3 30.171 80.2859 30.003 80.2579 29.863C80.174 29.387 80.1039 27.973 80.0479 25.621C80.0199 23.269 80.006 21.365 80.006 19.909C79.978 19.489 79.9639 19.111 79.9639 18.775C79.9919 18.439 80.006 18.159 80.006 17.935V16.969V15.373L81.854 18.859C83.338 21.631 84.2619 23.325 84.6259 23.941C85.2699 25.005 86.0119 26.475 86.8519 28.351L87.5659 29.779C87.8459 30.367 88.112 30.773 88.364 30.997C88.644 31.221 89.05 31.333 89.582 31.333C89.89 31.333 90.436 31.305 91.22 31.249C91.948 31.193 92.4799 31.165 92.8159 31.165C93.1519 31.165 93.3759 31.179 93.4879 31.207C93.6279 31.235 93.7959 31.249 93.9919 31.249C94.3559 31.249 94.58 31.095 94.664 30.787C94.608 30.395 94.5379 28.883 94.4539 26.251ZM58.4737 31.669C53.8257 31.669 50.5217 28.967 48.5617 23.563C47.6937 21.127 47.2037 18.411 47.0917 15.415C47.0917 12.951 47.6097 10.613 48.6457 8.40099C49.6817 6.16099 51.0397 4.36899 52.7197 3.02499C54.4277 1.68099 56.1777 1.00899 57.9697 1.00899C59.5937 1.00899 60.7977 1.05099 61.5817 1.13499C62.3937 1.21899 63.1217 1.47099 63.7657 1.89099C65.4457 3.01099 66.7897 4.52299 67.7977 6.42699C68.8337 8.33099 69.5477 10.193 69.9397 12.013C70.3597 13.805 70.5697 15.219 70.5697 16.255C70.5697 17.991 70.2897 20.007 69.7297 22.303C69.1977 24.599 68.0357 26.741 66.2437 28.729C64.4517 30.689 61.8617 31.669 58.4737 31.669ZM58.2637 29.317C61.2317 29.317 63.4437 28.085 64.8997 25.621C66.3557 23.129 67.0837 20.007 67.0837 16.255C67.0837 13.959 66.7337 11.845 66.0337 9.91299C65.3617 7.95299 64.3957 6.39899 63.1357 5.25099C61.9037 4.07499 60.4757 3.48699 58.8517 3.48699H57.7177C57.1297 3.48699 56.6117 3.58499 56.1637 3.78099C55.7157 3.97699 55.3097 4.27099 54.9457 4.66299C54.0217 5.58699 53.2377 6.44099 52.5937 7.22499C51.9777 7.98099 51.3477 9.11499 50.7037 10.627C50.0877 12.139 49.7797 13.889 49.7797 15.877C49.7797 18.229 50.0597 20.427 50.6197 22.471C51.2077 24.487 52.1317 26.139 53.3917 27.427C54.6517 28.687 56.2757 29.317 58.2637 29.317ZM8.42804 31.207C7.89604 31.207 7.63004 30.731 7.63004 29.779L7.67204 28.687L7.58804 26.587L7.54604 24.697L7.50404 23.437C7.39204 21.981 7.33604 20.329 7.33604 18.481C7.33604 17.389 7.39204 15.947 7.50404 14.155C7.61604 12.363 7.67204 10.893 7.67204 9.74499L7.63004 4.11699C7.60204 3.66899 7.58804 3.16499 7.58804 2.60499C7.58804 2.29699 7.78404 2.11499 8.17604 2.05899C8.59604 1.97499 9.03004 1.94699 9.47804 1.97499H10.402L11.914 1.89099C13.09 1.83499 14.042 1.80699 14.77 1.80699C16.478 1.80699 18.298 2.26899 20.23 3.19299C22.162 4.08899 23.856 5.74099 25.312 8.14899C26.768 10.557 27.496 13.833 27.496 17.977C27.496 21.757 26.586 24.627 24.766 26.587C22.974 28.519 21.084 29.765 19.096 30.325C17.108 30.857 15.456 31.123 14.14 31.123L10.696 31.165C10.08 31.193 9.32404 31.207 8.42804 31.207ZM14.854 22.219C15.61 21.855 16.31 21.351 16.954 20.707C18.354 19.363 19.054 17.767 19.054 15.919C19.054 14.155 18.382 12.741 17.038 11.677C16.45 11.229 15.792 10.893 15.064 10.669C15.12 11.285 15.148 11.761 15.148 12.097C15.148 12.629 15.12 13.399 15.064 14.407C15.008 15.359 14.98 16.059 14.98 16.507C14.98 17.235 14.952 18.411 14.896 20.035C14.868 20.511 14.854 21.239 14.854 22.219ZM59.7154 14.7444L58.5 10L57.2846 14.7444L54 16.5L57.2846 18.2556L58.5 23L59.7154 18.2556L63 16.5L59.7154 14.7444Z" fill="white"/>
<path d="M41.048 1.19501C40.796 5.61901 40.67 10.603 40.67 16.147C40.67 21.691 40.852 26.745 41.216 31.309L35.546 30.805C35.182 25.093 35 19.941 35 15.349C35 10.729 35.126 5.84301 35.378 0.69101L41.048 1.19501Z" fill="white"/>
</svg>
